<svg display="block" role="presentation" viewBox="0 0 102 24" xmlns="http://www.w3.org/2000/svg"><g d="M 1.514 9.18 C 1.514 6.297 3.864 3.96 6.763 3.96 L 10.742 3.96 C 13.641 3.96 15.991 6.297 15.991 9.18 C 15.991 12.063 13.641 14.4 10.742 14.4 L 6.763 14.4 C 3.864 14.4 1.514 12.063 1.514 9.18 Z M 1.472 0 C 2.285 0 2.944 0.655 2.944 1.463 L 2.944 9.171 L 0 9.171 L 0 1.464 C 0 0.655 0.659 0 1.472 0 Z M 8.386 9.151 C 8.386 9.959 7.734 10.614 6.93 10.614 C 6.126 10.614 5.474 9.959 5.474 9.151 C 5.474 8.342 6.126 7.687 6.93 7.687 C 7.734 7.687 8.386 8.342 8.386 9.151 Z M 12.996 9.151 C 12.996 9.959 12.344 10.614 11.54 10.614 C 10.735 10.614 10.084 9.959 10.084 9.151 C 10.084 8.342 10.735 7.687 11.54 7.687 C 12.344 7.687 12.996 8.342 12.996 9.151 Z M 0 9.129 C 0 5.439 3.006 2.446 6.717 2.446 L 7.506 2.446 C 8.319 2.446 8.978 3.101 8.978 3.91 C 8.978 4.718 8.319 5.373 7.506 5.373 L 6.717 5.373 C 4.634 5.373 2.943 7.054 2.943 9.13 C 2.943 11.205 4.634 12.886 6.717 12.886 L 10.531 12.886 C 11.344 12.886 12.003 13.541 12.003 14.349 C 12.003 15.158 11.344 15.813 10.531 15.813 L 6.717 15.813 C 3.006 15.813 0 12.819 0 9.13 Z M 27.006 5.871 C 27.608 5.871 28.154 6.005 28.643 6.274 C 29.132 6.527 29.537 6.916 29.811 7.393 C 30.092 7.869 30.232 8.427 30.232 9.065 C 30.232 9.703 30.092 10.264 29.811 10.749 C 29.53 11.225 29.141 11.598 28.643 11.867 C 28.154 12.128 27.608 12.259 27.006 12.259 C 26.115 12.259 25.437 11.99 24.972 11.452 L 24.972 12.167 L 23.178 12.167 L 23.178 3.611 L 25.056 3.611 L 25.056 6.62 C 25.53 6.121 26.18 5.871 27.006 5.871 Z M 26.681 10.783 C 27.163 10.783 27.556 10.629 27.861 10.322 C 28.174 10.007 28.33 9.588 28.33 9.065 C 28.33 8.542 28.174 8.127 27.861 7.82 C 27.556 7.504 27.163 7.347 26.681 7.347 C 26.2 7.347 25.803 7.504 25.49 7.82 C 25.185 8.127 25.032 8.542 25.032 9.065 C 25.032 9.588 25.185 10.007 25.49 10.322 C 25.803 10.629 26.2 10.783 26.681 10.783 Z M 34.571 12.259 C 33.889 12.259 33.275 12.125 32.729 11.855 C 32.191 11.579 31.77 11.198 31.465 10.714 C 31.16 10.23 31.008 9.68 31.008 9.065 C 31.008 8.45 31.16 7.9 31.465 7.416 C 31.77 6.932 32.191 6.555 32.729 6.286 C 33.275 6.009 33.889 5.871 34.571 5.871 C 35.253 5.871 35.863 6.009 36.401 6.286 C 36.938 6.555 37.36 6.932 37.665 7.416 C 37.97 7.9 38.122 8.45 38.122 9.065 C 38.122 9.68 37.97 10.23 37.665 10.714 C 37.36 11.198 36.938 11.579 36.401 11.855 C 35.863 12.125 35.253 12.259 34.571 12.259 Z M 34.571 10.783 C 35.052 10.783 35.446 10.629 35.751 10.322 C 36.064 10.007 36.22 9.588 36.22 9.065 C 36.22 8.542 36.064 8.127 35.751 7.82 C 35.446 7.504 35.052 7.347 34.571 7.347 C 34.09 7.347 33.692 7.504 33.379 7.82 C 33.066 8.127 32.91 8.542 32.91 9.065 C 32.91 9.588 33.066 10.007 33.379 10.322 C 33.692 10.629 34.09 10.783 34.571 10.783 Z M 43.277 11.867 C 43.093 11.998 42.864 12.098 42.591 12.167 C 42.319 12.229 42.04 12.26 41.761 12.259 C 40.982 12.259 40.384 12.071 39.967 11.694 C 39.55 11.317 39.341 10.764 39.341 10.034 L 39.341 4.591 L 41.219 4.591 L 41.219 6.101 L 42.82 6.101 L 42.82 7.485 L 41.219 7.485 L 41.219 10.011 C 41.219 10.272 41.287 10.476 41.424 10.622 C 41.56 10.76 41.757 10.829 42.013 10.829 C 42.302 10.829 42.559 10.752 42.784 10.599 L 43.277 11.867 Z M 47.268 12.259 C 46.578 12.259 45.956 12.125 45.402 11.855 C 44.856 11.579 44.427 11.198 44.114 10.714 C 43.809 10.23 43.657 9.68 43.657 9.065 C 43.657 8.45 43.809 7.9 44.114 7.416 C 44.427 6.932 44.856 6.555 45.402 6.286 C 45.956 6.009 46.578 5.871 47.268 5.871 C 47.95 5.871 48.544 6.009 49.049 6.286 C 49.563 6.555 49.936 6.943 50.169 7.451 L 48.712 8.2 C 48.375 7.631 47.89 7.347 47.256 7.347 C 46.766 7.347 46.361 7.501 46.04 7.808 C 45.719 8.115 45.558 8.535 45.558 9.065 C 45.558 9.595 45.719 10.014 46.04 10.322 C 46.361 10.629 46.766 10.783 47.256 10.783 C 47.898 10.783 48.383 10.499 48.712 9.93 L 50.169 10.691 C 49.936 11.183 49.563 11.567 49.049 11.844 C 48.544 12.121 47.95 12.259 47.268 12.259 Z M 54.249 12.259 C 53.567 12.259 52.953 12.125 52.408 11.855 C 51.87 11.579 51.448 11.198 51.144 10.714 C 50.839 10.23 50.686 9.68 50.686 9.065 C 50.686 8.45 50.839 7.9 51.144 7.416 C 51.448 6.932 51.87 6.555 52.408 6.286 C 52.953 6.009 53.567 5.871 54.249 5.871 C 54.931 5.871 55.541 6.009 56.079 6.286 C 56.616 6.555 57.038 6.932 57.343 7.416 C 57.648 7.9 57.8 8.45 57.8 9.065 C 57.8 9.68 57.648 10.23 57.343 10.714 C 57.038 11.198 56.616 11.579 56.079 11.855 C 55.541 12.125 54.931 12.259 54.249 12.259 Z M 54.249 10.783 C 54.731 10.783 55.124 10.629 55.429 10.322 C 55.742 10.007 55.898 9.588 55.898 9.065 C 55.898 8.542 55.742 8.127 55.429 7.82 C 55.124 7.504 54.731 7.347 54.249 7.347 C 53.768 7.347 53.371 7.504 53.057 7.82 C 52.745 8.127 52.588 8.542 52.588 9.065 C 52.588 9.588 52.745 10.007 53.057 10.322 C 53.371 10.629 53.768 10.783 54.249 10.783 Z M 62.992 5.871 C 63.794 5.871 64.44 6.102 64.929 6.563 C 65.427 7.024 65.676 7.708 65.676 8.615 L 65.676 12.167 L 63.798 12.167 L 63.798 8.892 C 63.798 8.4 63.686 8.035 63.461 7.797 C 63.236 7.551 62.911 7.428 62.486 7.428 C 62.012 7.428 61.635 7.57 61.354 7.854 C 61.074 8.131 60.933 8.546 60.933 9.1 L 60.933 12.167 L 59.055 12.167 L 59.055 5.964 L 60.849 5.964 L 60.849 6.69 C 61.098 6.428 61.407 6.229 61.776 6.09 C 62.145 5.944 62.55 5.871 62.992 5.871 Z M 73.688 5.963 L 70.956 12.167 L 69.018 12.167 L 66.298 5.963 L 68.236 5.963 L 70.029 10.184 L 71.883 5.963 L 73.688 5.963 Z M 77.54 10.818 C 77.878 10.818 78.175 10.772 78.431 10.679 C 78.696 10.579 78.941 10.426 79.165 10.218 L 80.165 11.256 C 79.555 11.925 78.664 12.259 77.492 12.259 C 76.762 12.259 76.116 12.125 75.554 11.855 C 74.993 11.579 74.559 11.198 74.254 10.714 C 73.949 10.23 73.797 9.68 73.797 9.065 C 73.797 8.458 73.945 7.912 74.242 7.428 C 74.547 6.936 74.961 6.555 75.482 6.286 C 76.012 6.009 76.606 5.871 77.264 5.871 C 77.881 5.871 78.443 5.998 78.949 6.251 C 79.446 6.49 79.864 6.866 80.152 7.335 C 80.457 7.804 80.61 8.361 80.61 9.007 L 75.819 9.895 C 75.955 10.203 76.168 10.433 76.457 10.587 C 76.754 10.741 77.115 10.818 77.54 10.818 Z M 77.264 7.231 C 76.79 7.231 76.405 7.378 76.108 7.67 C 75.811 7.962 75.655 8.365 75.639 8.88 L 78.792 8.293 C 78.71 7.978 78.518 7.704 78.251 7.52 C 77.978 7.328 77.649 7.231 77.264 7.231 Z M 83.666 6.782 C 83.89 6.482 84.191 6.255 84.569 6.102 C 84.954 5.948 85.395 5.871 85.893 5.871 L 85.893 7.531 C 85.684 7.516 85.544 7.508 85.471 7.508 C 84.934 7.508 84.512 7.654 84.207 7.947 C 83.903 8.231 83.75 8.662 83.75 9.238 L 83.75 12.167 L 81.872 12.167 L 81.872 5.963 L 83.666 5.963 Z M 89.211 12.259 C 88.674 12.259 88.148 12.198 87.635 12.074 C 87.121 11.944 86.712 11.782 86.407 11.59 L 87.033 10.299 C 87.322 10.475 87.671 10.622 88.08 10.737 C 88.489 10.844 88.89 10.899 89.284 10.899 C 90.078 10.899 90.475 10.71 90.475 10.333 C 90.475 10.157 90.367 10.03 90.15 9.953 C 89.934 9.876 89.601 9.811 89.151 9.757 C 88.622 9.68 88.184 9.591 87.839 9.492 C 87.498 9.394 87.188 9.212 86.936 8.961 C 86.688 8.707 86.563 8.346 86.563 7.877 C 86.563 7.485 86.68 7.139 86.912 6.839 C 87.153 6.532 87.498 6.294 87.948 6.124 C 88.405 5.955 88.943 5.871 89.561 5.871 C 90.018 5.871 90.471 5.921 90.921 6.021 C 91.378 6.113 91.755 6.244 92.052 6.413 L 91.426 7.693 C 90.857 7.385 90.235 7.232 89.561 7.232 C 89.159 7.232 88.858 7.285 88.658 7.393 C 88.457 7.501 88.357 7.639 88.357 7.808 C 88.357 8 88.465 8.135 88.682 8.212 C 88.899 8.289 89.244 8.361 89.717 8.431 C 90.247 8.515 90.68 8.608 91.017 8.707 C 91.351 8.798 91.655 8.977 91.896 9.226 C 92.145 9.48 92.269 9.834 92.269 10.287 C 92.273 10.661 92.145 11.024 91.908 11.314 C 91.667 11.613 91.314 11.848 90.849 12.017 C 90.391 12.178 89.846 12.259 89.211 12.259 Z M 100 5.963 L 100 12.167 L 98.207 12.167 L 98.207 11.452 C 97.741 11.99 97.067 12.259 96.184 12.259 C 95.574 12.259 95.02 12.128 94.523 11.867 C 94.033 11.606 93.648 11.233 93.367 10.749 C 93.087 10.264 92.946 9.703 92.946 9.065 C 92.946 8.427 93.087 7.866 93.367 7.381 C 93.648 6.897 94.033 6.524 94.523 6.263 C 95.02 6.001 95.574 5.871 96.184 5.871 C 97.011 5.871 97.657 6.121 98.122 6.62 L 98.122 5.963 Z M 96.509 10.783 C 96.983 10.783 97.376 10.629 97.689 10.322 C 98.002 10.007 98.158 9.588 98.158 9.065 C 98.158 8.542 98.002 8.127 97.689 7.82 C 97.376 7.504 96.983 7.347 96.509 7.347 C 96.028 7.347 95.63 7.504 95.317 7.82 C 95.004 8.127 94.848 8.542 94.848 9.065 C 94.848 9.588 95.004 10.007 95.317 10.322 C 95.63 10.629 96.028 10.783 96.509 10.783 Z" fill="transparent" height="15.812829407899585px" id="aCeE5l78f" transform="translate(0.5 4.5)" width="99.99999901130764px"><path d="M 0 5.22 C 0 2.337 2.35 0 5.249 0 L 9.228 0 C 12.127 0 14.477 2.337 14.477 5.22 C 14.477 8.103 12.127 10.439 9.228 10.439 L 5.249 10.439 C 2.35 10.439 0 8.102 0 5.22 Z" fill="rgb(48, 131, 255)" height="10.439388701844024px" id="ePWX3fBsS" transform="translate(1.514 3.96)" width="14.477098443644863px"/><path d="M 1.472 0 C 2.285 0 2.944 0.655 2.944 1.463 L 2.944 9.171 L 0 9.171 L 0 1.464 C 0 0.655 0.659 0 1.472 0 Z" fill="rgb(40, 199, 101)" height="9.171445811137175px" id="Og_mjn5SB" width="2.943547008446046px"/><path d="M 2.912 1.463 C 2.912 2.272 2.26 2.927 1.456 2.927 C 0.652 2.927 0 2.272 0 1.463 C 0 0.655 0.652 0 1.456 0 C 2.26 0 2.912 0.655 2.912 1.463 Z M 7.521 1.463 C 7.521 2.272 6.869 2.927 6.065 2.927 C 5.261 2.927 4.609 2.272 4.609 1.463 C 4.609 0.655 5.261 0 6.065 0 C 6.869 0 7.521 0.655 7.521 1.463 Z" fill="rgb(255, 255, 255)" height="2.9270076100921614px" id="zvN6QEu3M" transform="translate(5.474 7.687)" width="7.52123375481645px"/><path d="M 0 6.683 C 0 2.993 3.006 0 6.717 0 L 7.506 0 C 8.319 0 8.978 0.655 8.978 1.464 C 8.978 2.272 8.319 2.927 7.506 2.927 L 6.717 2.927 C 4.634 2.927 2.943 4.608 2.943 6.684 C 2.943 8.759 4.634 10.44 6.717 10.44 L 10.531 10.44 C 11.344 10.44 12.003 11.095 12.003 11.903 C 12.003 12.712 11.344 13.367 10.531 13.367 L 6.717 13.367 C 3.006 13.367 0 10.373 0 6.684 Z" fill="rgb(40, 199, 101)" height="13.366862210481372px" id="tvuz8NwFk" transform="translate(0 2.446)" width="12.00294421946748px"/><path d="M 3.828 2.26 C 4.43 2.26 4.976 2.395 5.465 2.664 C 5.954 2.917 6.359 3.305 6.633 3.782 C 6.913 4.259 7.054 4.816 7.054 5.454 C 7.054 6.092 6.913 6.653 6.633 7.138 C 6.352 7.614 5.963 7.987 5.465 8.256 C 4.976 8.518 4.43 8.648 3.828 8.648 C 2.937 8.648 2.259 8.379 1.793 7.841 L 1.793 8.556 L 0 8.556 L 0 0 L 1.878 0 L 1.878 3.01 C 2.351 2.51 3.001 2.26 3.828 2.26 Z M 3.503 7.173 C 3.984 7.173 4.378 7.019 4.683 6.711 C 4.996 6.396 5.152 5.977 5.152 5.454 C 5.152 4.932 4.996 4.516 4.683 4.209 C 4.378 3.894 3.984 3.736 3.503 3.736 C 3.021 3.736 2.624 3.894 2.311 4.209 C 2.006 4.516 1.854 4.932 1.854 5.454 C 1.854 5.977 2.006 6.396 2.311 6.711 C 2.624 7.019 3.021 7.172 3.503 7.172 Z M 11.393 8.648 C 10.71 8.648 10.096 8.514 9.551 8.245 C 9.013 7.968 8.592 7.587 8.287 7.103 C 7.982 6.619 7.829 6.069 7.829 5.454 C 7.829 4.839 7.982 4.29 8.287 3.805 C 8.592 3.321 9.013 2.944 9.551 2.675 C 10.096 2.398 10.71 2.26 11.393 2.26 C 12.075 2.26 12.685 2.398 13.222 2.675 C 13.76 2.944 14.181 3.321 14.486 3.805 C 14.791 4.29 14.943 4.839 14.943 5.454 C 14.943 6.069 14.791 6.619 14.486 7.103 C 14.181 7.588 13.76 7.968 13.222 8.245 C 12.685 8.514 12.075 8.648 11.393 8.648 Z M 11.393 7.172 C 11.874 7.172 12.267 7.019 12.572 6.711 C 12.885 6.396 13.042 5.977 13.042 5.454 C 13.042 4.932 12.885 4.516 12.572 4.209 C 12.267 3.894 11.874 3.736 11.393 3.736 C 10.911 3.736 10.514 3.894 10.201 4.209 C 9.888 4.516 9.731 4.932 9.731 5.454 C 9.731 5.977 9.888 6.396 10.201 6.711 C 10.514 7.019 10.911 7.172 11.393 7.172 Z M 20.099 8.256 C 19.914 8.387 19.686 8.487 19.413 8.556 C 19.14 8.618 18.862 8.649 18.582 8.648 C 17.804 8.648 17.206 8.46 16.788 8.083 C 16.371 7.707 16.162 7.153 16.162 6.423 L 16.162 0.98 L 18.04 0.98 L 18.04 2.491 L 19.641 2.491 L 19.641 3.874 L 18.04 3.874 L 18.04 6.4 C 18.04 6.661 18.109 6.865 18.245 7.011 C 18.382 7.149 18.578 7.219 18.835 7.219 C 19.124 7.219 19.38 7.142 19.605 6.988 L 20.099 8.256 Z M 24.089 8.648 C 23.399 8.648 22.777 8.514 22.223 8.245 C 21.678 7.968 21.248 7.587 20.935 7.103 C 20.63 6.619 20.478 6.069 20.478 5.454 C 20.478 4.839 20.63 4.29 20.935 3.805 C 21.248 3.321 21.678 2.944 22.223 2.675 C 22.777 2.398 23.399 2.26 24.089 2.26 C 24.771 2.26 25.365 2.398 25.871 2.675 C 26.384 2.944 26.757 3.333 26.99 3.84 L 25.534 4.59 C 25.197 4.02 24.711 3.736 24.077 3.736 C 23.588 3.736 23.182 3.89 22.861 4.197 C 22.54 4.505 22.38 4.924 22.38 5.454 C 22.38 5.985 22.54 6.404 22.861 6.711 C 23.182 7.019 23.588 7.172 24.077 7.172 C 24.719 7.172 25.205 6.888 25.534 6.319 L 26.99 7.08 C 26.757 7.572 26.384 7.957 25.871 8.233 C 25.365 8.51 24.771 8.648 24.089 8.648 Z M 31.071 8.648 C 30.389 8.648 29.775 8.514 29.229 8.245 C 28.691 7.968 28.27 7.587 27.965 7.103 C 27.66 6.619 27.508 6.069 27.508 5.454 C 27.508 4.839 27.66 4.29 27.965 3.805 C 28.27 3.321 28.691 2.944 29.229 2.675 C 29.775 2.398 30.389 2.26 31.071 2.26 C 31.753 2.26 32.363 2.398 32.9 2.675 C 33.438 2.944 33.859 3.321 34.164 3.805 C 34.469 4.29 34.622 4.839 34.622 5.454 C 34.622 6.069 34.469 6.619 34.164 7.103 C 33.859 7.588 33.438 7.968 32.9 8.245 C 32.363 8.514 31.753 8.648 31.071 8.648 Z M 31.071 7.172 C 31.552 7.172 31.945 7.019 32.25 6.711 C 32.563 6.396 32.72 5.977 32.72 5.454 C 32.72 4.932 32.563 4.516 32.25 4.209 C 31.945 3.894 31.552 3.736 31.071 3.736 C 30.589 3.736 30.192 3.894 29.879 4.209 C 29.566 4.516 29.41 4.932 29.41 5.454 C 29.41 5.977 29.566 6.396 29.879 6.711 C 30.192 7.019 30.589 7.172 31.071 7.172 Z M 39.813 2.26 C 40.616 2.26 41.262 2.491 41.751 2.952 C 42.249 3.413 42.497 4.097 42.497 5.004 L 42.497 8.556 L 40.62 8.556 L 40.62 5.282 C 40.62 4.789 40.507 4.424 40.283 4.186 C 40.058 3.94 39.733 3.817 39.308 3.817 C 38.834 3.817 38.457 3.959 38.176 4.244 C 37.895 4.521 37.755 4.935 37.755 5.489 L 37.755 8.556 L 35.877 8.556 L 35.877 2.353 L 37.67 2.353 L 37.67 3.079 C 37.919 2.818 38.228 2.618 38.597 2.48 C 38.967 2.333 39.372 2.261 39.813 2.261 Z M 50.51 2.352 L 47.777 8.556 L 45.84 8.556 L 43.119 2.352 L 45.057 2.352 L 46.851 6.573 L 48.704 2.353 L 50.51 2.353 Z M 54.362 7.207 C 54.699 7.207 54.996 7.161 55.253 7.069 C 55.518 6.969 55.762 6.815 55.987 6.607 L 56.986 7.645 C 56.376 8.314 55.485 8.648 54.314 8.648 C 53.584 8.648 52.937 8.514 52.376 8.245 C 51.814 7.968 51.381 7.587 51.076 7.103 C 50.771 6.619 50.618 6.069 50.618 5.454 C 50.618 4.847 50.767 4.301 51.064 3.817 C 51.369 3.325 51.782 2.944 52.304 2.675 C 52.833 2.399 53.427 2.26 54.085 2.26 C 54.703 2.26 55.265 2.387 55.77 2.641 C 56.267 2.879 56.685 3.255 56.974 3.725 C 57.279 4.194 57.432 4.751 57.432 5.397 L 52.641 6.285 C 52.777 6.592 52.99 6.823 53.279 6.976 C 53.576 7.13 53.937 7.207 54.362 7.207 Z M 54.085 3.621 C 53.612 3.621 53.227 3.767 52.93 4.059 C 52.633 4.351 52.476 4.755 52.46 5.27 L 55.614 4.682 C 55.532 4.368 55.34 4.093 55.072 3.909 C 54.799 3.717 54.47 3.621 54.085 3.621 Z M 60.487 3.171 C 60.712 2.871 61.013 2.645 61.39 2.491 C 61.775 2.337 62.217 2.26 62.714 2.26 L 62.714 3.921 C 62.506 3.905 62.365 3.897 62.293 3.897 C 61.755 3.897 61.334 4.044 61.029 4.336 C 60.724 4.62 60.572 5.051 60.572 5.627 L 60.572 8.556 L 58.694 8.556 L 58.694 2.353 L 60.487 2.353 Z M 66.033 8.648 C 65.495 8.648 64.97 8.587 64.456 8.464 C 63.942 8.333 63.533 8.172 63.228 7.98 L 63.854 6.688 C 64.143 6.865 64.492 7.011 64.902 7.126 C 65.311 7.234 65.712 7.288 66.105 7.288 C 66.9 7.288 67.297 7.099 67.297 6.723 C 67.297 6.546 67.189 6.419 66.972 6.342 C 66.755 6.265 66.422 6.2 65.973 6.146 C 65.443 6.069 65.006 5.981 64.661 5.881 C 64.32 5.783 64.009 5.601 63.758 5.351 C 63.509 5.097 63.385 4.736 63.385 4.266 C 63.385 3.874 63.501 3.528 63.734 3.229 C 63.975 2.921 64.32 2.683 64.769 2.514 C 65.226 2.345 65.764 2.26 66.382 2.26 C 66.84 2.26 67.293 2.31 67.742 2.41 C 68.2 2.502 68.577 2.633 68.874 2.802 L 68.248 4.082 C 67.678 3.775 67.056 3.621 66.382 3.621 C 65.981 3.621 65.68 3.675 65.479 3.782 C 65.279 3.89 65.179 4.028 65.179 4.197 C 65.179 4.39 65.287 4.524 65.503 4.601 C 65.72 4.678 66.065 4.751 66.539 4.82 C 67.068 4.905 67.502 4.997 67.839 5.097 C 68.173 5.187 68.477 5.367 68.717 5.616 C 68.966 5.869 69.09 6.223 69.09 6.677 C 69.094 7.05 68.966 7.414 68.729 7.703 C 68.489 8.003 68.136 8.237 67.67 8.406 C 67.213 8.568 66.667 8.648 66.033 8.648 Z M 76.822 2.352 L 76.822 8.556 L 75.028 8.556 L 75.028 7.841 C 74.562 8.379 73.888 8.648 73.006 8.648 C 72.396 8.648 71.842 8.518 71.344 8.256 C 70.855 7.995 70.47 7.622 70.189 7.138 C 69.908 6.653 69.768 6.092 69.768 5.454 C 69.768 4.816 69.908 4.255 70.189 3.771 C 70.47 3.286 70.855 2.913 71.344 2.652 C 71.842 2.391 72.396 2.26 73.006 2.26 C 73.832 2.26 74.478 2.51 74.944 3.01 L 74.944 2.352 Z M 73.331 7.173 C 73.804 7.173 74.197 7.019 74.51 6.711 C 74.823 6.396 74.98 5.977 74.98 5.454 C 74.98 4.932 74.823 4.516 74.51 4.209 C 74.197 3.894 73.804 3.736 73.331 3.736 C 72.849 3.736 72.452 3.894 72.139 4.209 C 71.826 4.516 71.67 4.932 71.67 5.454 C 71.67 5.977 71.826 6.396 72.139 6.711 C 72.452 7.019 72.849 7.172 73.331 7.172 Z" fill="rgb(43, 50, 56)" height="8.648474990146937px" id="rgA3iDeQz" transform="translate(23.178 3.611)" width="76.82154556587307px"/></g></svg>